<svg xmlns="http://www.w3.org/2000/svg" id="root" version="1.1" viewBox="0 0 16 16"><defs><radialGradient id="b" cx="301" cy="51.5" r="19.5" gradientTransform="matrix(.97063 1.9684e-8 0 .28611 -291.16 -14.63)" gradientUnits="userSpaceOnUse"><stop offset="0" stop-color="#fff"/><stop offset="1" stop-color="#fff" stop-opacity="0"/></radialGradient><radialGradient id="a" cx="24.446" cy="35.878" r="20.531" gradientTransform="matrix(.85696 3.2529e-7 -1.253e-7 .33010 -12.949 .77181)" gradientUnits="userSpaceOnUse"><stop offset="0" stop-color="#fff"/><stop offset="1" stop-color="#fabebe"/></radialGradient><linearGradient id="c" x1="321.57" x2="311.65" y1="145.52" y2="118.5" gradientTransform="matrix(.55569 0 0 .55568 -169.27 -70.906)" gradientUnits="userSpaceOnUse"><stop offset="0" stop-color="#a40000"/><stop offset="1" stop-color="#f9adad"/></linearGradient><linearGradient id="d" x1="491.22" x2="491.22" y1="506.65" y2="732.05" gradientTransform="matrix(.093294 0 0 .093294 -35.871 -43.769)" gradientUnits="userSpaceOnUse"><stop offset="0" stop-color="#a40000"/><stop offset="1" stop-color="#f9adad"/></linearGradient></defs><rect width="15.004" height="15.003" x=".498" y=".498" fill="url(#a)" fill-rule="evenodd" stroke="url(#c)" stroke-linejoin="bevel" stroke-miterlimit="10" rx="1.514" ry="1.514"/><rect width="12.997" height="13" x="1.501" y="1.502" fill="none" stroke="#fff" stroke-linejoin="bevel" stroke-miterlimit="10" rx=".508" ry=".508"/><rect width="14" height="14" x="1.002" y="1.002" fill="url(#b)" fill-rule="evenodd" rx="1.906" ry="1.906"/><path fill="#fff" d="m8.7468 4.772c-2.707 0-4.5312 1.887-4.5312 4.3125 0 2.3868 1.7261 4.3438 4.4375 4.3438 0.77681 0 1.6598-0.16116 2.5313-0.53125l0.21875-0.09375a0.25002 0.25002 0 0 0 0.09375 -0.0625 0.25002 0.25002 0 0 0 0.03125 -0.0625 0.25002 0.25002 0 0 0 0.03125 -0.09375 0.25002 0.25002 0 0 0 -0.03125 -0.09375l-0.46875-1.1562a0.25002 0.25002 0 0 0 0 -0.03125 0.25002 0.25002 0 0 0 -0.09375 -0.09375 0.25002 0.25002 0 0 0 -0.0625 -0.03125 0.25002 0.25002 0 0 0 -0.0625 0 0.25002 0.25002 0 0 0 -0.0625 0 0.25002 0.25002 0 0 0 -0.03125 0.03125l-0.1875 0.0625a0.25002 0.25002 0 0 0 -0.03125 0c-0.58568 0.23206-1.1595 0.34375-1.625 0.34375-0.88382 0-1.5432-0.24749-2-0.6875-0.45679-0.44001-0.71875-1.0822-0.71875-1.875 0-1.408 0.89423-2.5312 2.5-2.5312 0.36888 0 0.90663 0.00178 1.75 0.3125l0.21875 0.0625a0.25002 0.25002 0 0 0 0.0625 0 0.25002 0.25002 0 0 0 0.09375 0 0.25002 0.25002 0 0 0 0.125 -0.09375 0.25002 0.25002 0 0 0 0.03125 -0.03125l0.46875-1.125a0.25002 0.25002 0 0 0 0 -0.0625 0.25002 0.25002 0 0 0 0 -0.0625 0.25002 0.25002 0 0 0 -0.03125 -0.09375 0.25002 0.25002 0 0 0 -0.03125 -0.0625 0.25002 0.25002 0 0 0 -0.03125 -0.03125 0.25002 0.25002 0 0 0 -0.0625 -0.03125l-0.21875-0.0625c-0.871-0.3467-1.6578-0.4687-2.3112-0.4687z" display="block"/><path fill="url(#d)" d="m8.8594 3.6719c-2.707 0-4.5312 1.887-4.5312 4.3125 0 2.3868 1.7261 4.3438 4.4375 4.3438 0.77681 0 1.6598-0.16116 2.5313-0.53125l0.21875-0.09375a0.25002 0.25002 0 0 0 0.09375 -0.0625 0.25002 0.25002 0 0 0 0.03125 -0.0625 0.25002 0.25002 0 0 0 0.03125 -0.09375 0.25002 0.25002 0 0 0 -0.03125 -0.09375l-0.46875-1.1562a0.25002 0.25002 0 0 0 0 -0.03125 0.25002 0.25002 0 0 0 -0.09375 -0.09375 0.25002 0.25002 0 0 0 -0.0625 -0.03125 0.25002 0.25002 0 0 0 -0.0625 0 0.25002 0.25002 0 0 0 -0.0625 0 0.25002 0.25002 0 0 0 -0.03125 0.03125l-0.1875 0.0625a0.25002 0.25002 0 0 0 -0.03125 0c-0.58568 0.23206-1.1595 0.34375-1.625 0.34375-0.88382 0-1.5432-0.24749-2-0.6875-0.45679-0.44001-0.71875-1.0822-0.71875-1.875 0-1.408 0.89423-2.5312 2.5-2.5312 0.36888 0 0.90663 0.00178 1.75 0.3125l0.21875 0.0625a0.25002 0.25002 0 0 0 0.0625 0 0.25002 0.25002 0 0 0 0.09375 0 0.25002 0.25002 0 0 0 0.125 -0.09375 0.25002 0.25002 0 0 0 0.03125 -0.03125l0.46875-1.125a0.25002 0.25002 0 0 0 0 -0.0625 0.25002 0.25002 0 0 0 0 -0.0625 0.25002 0.25002 0 0 0 -0.03125 -0.09375 0.25002 0.25002 0 0 0 -0.03125 -0.0625 0.25002 0.25002 0 0 0 -0.03125 -0.03125 0.25002 0.25002 0 0 0 -0.0625 -0.03125l-0.21875-0.0625c-0.873-0.3468-1.6593-0.4688-2.3126-0.4688z" display="block"/></svg>