<svg xmlns="http://www.w3.org/2000/svg" id="root" version="1.1" viewBox="0 0 13 14"><rect width="12" height="12" x=".5" y="1" fill="none" stroke="#000" stroke-linejoin="bevel" stroke-miterlimit="10" stroke-width="1" rx="1.211" ry="1.211"/><path d="m3.0938 2.75c-0.02216 0.00743-0.04326 0.017981-0.0625 0.03125-0.03888 0.02211-0.07164 0.054868-0.09375 0.09375-0.01327 0.019236-0.02385 0.040343-0.03125 0.0625-0.0026 0.020724-0.0026 0.041776 0 0.0625v1.2813a0.25002 0.25002 0 0 0 0 0.0625 0.25002 0.25002 0 0 0 0.09375 0.125 0.25002 0.25002 0 0 0 0.03125 0.03125 0.25002 0.25002 0 0 0 0.09375 0.03125 0.25002 0.25002 0 0 0 0.03125 0h2.375v6.4687a0.25002 0.25002 0 0 0 0.03125 0.09375 0.25002 0.25002 0 0 0 0.0625 0.09375 0.25002 0.25002 0 0 0 0.0625 0.03125 0.25002 0.25002 0 0 0 0.09375 0.03125h1.4062a0.25002 0.25002 0 0 0 0.0625 0 0.25002 0.25002 0 0 0 0.0625 -0.03125 0.25002 0.25002 0 0 0 0.09375 -0.09375 0.25002 0.25002 0 0 0 0.03125 -0.0625 0.25002 0.25002 0 0 0 0 -0.0625v-6.4687h2.4063a0.25002 0.25002 0 0 0 0.0625 0 0.25002 0.25002 0 0 0 0.09375 -0.0625 0.25002 0.25002 0 0 0 0.03125 -0.03125 0.25002 0.25002 0 0 0 0.03125 -0.09375 0.25002 0.25002 0 0 0 0.03125 -0.0625v-1.2813a0.25002 0.25002 0 0 0 0 -0.0625 0.25002 0.25002 0 0 0 -0.032 -0.0625 0.25002 0.25002 0 0 0 -0.0933 -0.0938 0.25002 0.25002 0 0 0 -0.0625 -0.0312 0.25002 0.25002 0 0 0 -0.0625 0h-6.6875c-0.02072-0.00261-0.04178-0.00261-0.0625 0z" display="block"/></svg>