<svg xmlns="http://www.w3.org/2000/svg" id="root" version="1.1" viewBox="0 0 16 16"><defs><radialGradient id="b" cx="301" cy="51.5" r="19.5" gradientTransform="matrix(.97063 1.9684e-8 0 .28611 -291.16 -14.63)" gradientUnits="userSpaceOnUse"><stop offset="0" stop-color="#fff"/><stop offset="1" stop-color="#fff" stop-opacity="0"/></radialGradient><radialGradient id="a" cx="24.446" cy="35.878" r="20.531" gradientTransform="matrix(.85696 3.2529e-7 -1.253e-7 .33010 -12.949 .77181)" gradientUnits="userSpaceOnUse"><stop offset="0" stop-color="#fff"/><stop offset="1" stop-color="#dcdcdc"/></radialGradient><linearGradient id="c" x1="321.57" x2="311.65" y1="145.52" y2="118.5" gradientTransform="matrix(.55569 0 0 .55568 -169.27 -70.906)" gradientUnits="userSpaceOnUse"><stop offset="0" stop-color="#9b9b9b"/><stop offset="1" stop-color="#d3d7cf"/></linearGradient><linearGradient id="d" x1="491.22" x2="491.22" y1="506.65" y2="732.05" gradientTransform="matrix(.093294 0 0 .093294 -35.871 -43.769)" gradientUnits="userSpaceOnUse"><stop offset="0" stop-color="#888a85"/><stop offset="1" stop-color="#d3d7cf"/></linearGradient></defs><rect width="15.004" height="15.003" x=".498" y=".498" fill="url(#a)" fill-rule="evenodd" stroke="url(#c)" stroke-linejoin="bevel" stroke-miterlimit="10" rx="1.514" ry="1.514"/><rect width="12.997" height="13" x="1.501" y="1.502" fill="none" stroke="#fff" stroke-linejoin="bevel" stroke-miterlimit="10" rx=".508" ry=".508"/><rect width="14" height="14" x="1.002" y="1.002" fill="url(#b)" fill-rule="evenodd" rx="1.906" ry="1.906"/><path fill="#fff" d="m5.1843 4.8494a0.25002 0.25002 0 0 0 -0.03125 0.03125 0.25002 0.25002 0 0 0 -0.03125 0.03125 0.25002 0.25002 0 0 0 -0.0625 0.0625 0.25002 0.25002 0 0 0 -0.03125 0.0625 0.25002 0.25002 0 0 0 0 0.0625v8c-0.0026 0.02072-0.0026 0.04178 0 0.0625 0.0074 0.02216 0.01798 0.04326 0.03125 0.0625 0.02211 0.03888 0.05487 0.07164 0.09375 0.09375 0.0095 0.01131 0.01994 0.02178 0.03125 0.03125 0.02072 0.0026 0.04178 0.0026 0.0625 0 0.0104 0.000651 0.02085 0.000651 0.03125 0h5.2187a0.25002 0.25002 0 0 0 0.03125 0 0.25002 0.25002 0 0 0 0.0625 0 0.25002 0.25002 0 0 0 0.0625 -0.0625 0.25002 0.25002 0 0 0 0.03125 -0.03125 0.25002 0.25002 0 0 0 0.03125 -0.0625 0.25002 0.25002 0 0 0 0.03125 -0.09375v-1.3125a0.25002 0.25002 0 0 0 0 -0.0625 0.25002 0.25002 0 0 0 -0.03125 -0.0625 0.25002 0.25002 0 0 0 -0.0625 -0.0625 0.25002 0.25002 0 0 0 -0.03125 0 0.25002 0.25002 0 0 0 -0.03125 -0.03125 0.25002 0.25002 0 0 0 -0.03125 0 0.25002 0.25002 0 0 0 -0.0625 -0.03125h-3.5625v-1.5938h3.1562a0.25002 0.25002 0 0 0 0.0625 0 0.25002 0.25002 0 0 0 0.03125 -0.03125 0.25002 0.25002 0 0 0 0.0625 -0.03125 0.25002 0.25002 0 0 0 0.03125 -0.03125 0.25002 0.25002 0 0 0 0.03125 -0.03125 0.25002 0.25002 0 0 0 0.03125 -0.09375 0.25002 0.25002 0 0 0 0 -0.03125v-1.3125a0.25002 0.25002 0 0 0 -0.03125 -0.09375 0.25002 0.25002 0 0 0 -0.03125 -0.03125 0.25002 0.25002 0 0 0 -0.0625 -0.0625 0.25002 0.25002 0 0 0 -0.03125 0 0.25002 0.25002 0 0 0 -0.03125 -0.03125 0.25002 0.25002 0 0 0 -0.03125 0 0.25002 0.25002 0 0 0 -0.03125 -0.03125h-3.1562v-1.5h3.5625a0.25002 0.25002 0 0 0 0.03125 0 0.25002 0.25002 0 0 0 0.0625 0 0.25002 0.25002 0 0 0 0.03125 -0.03125 0.25002 0.25002 0 0 0 0.03125 0 0.25002 0.25002 0 0 0 0.0625 -0.0625 0.25002 0.25002 0 0 0 0 -0.03125 0.25002 0.25002 0 0 0 0.03125 -0.09375 0.25002 0.25002 0 0 0 0 -0.03125v-1.2813a0.25002 0.25002 0 0 0 -0.03125 -0.09375 0.25002 0.25002 0 0 0 -0.03125 -0.0625 0.25002 0.25002 0 0 0 -0.03125 -0.03125 0.25002 0.25002 0 0 0 -0.03125 -0.03125 0.25002 0.25002 0 0 0 -0.03125 0 0.25002 0.25002 0 0 0 -0.0625 -0.03125 0.25002 0.25002 0 0 0 -0.03125 0h-5.2187a0.25002 0.25002 0 0 0 -0.03125 0 0.25002 0.25002 0 0 0 -0.03125 0 0.25002 0.25002 0 0 0 -0.03125 0z" display="block"/><path fill="url(#d)" d="m5.2361 3.819a0.25002 0.25002 0 0 0 -0.03125 0.03125 0.25002 0.25002 0 0 0 -0.03125 0.03125 0.25002 0.25002 0 0 0 -0.0625 0.0625 0.25002 0.25002 0 0 0 -0.03125 0.0625 0.25002 0.25002 0 0 0 0 0.0625v8c-0.0026 0.02072-0.0026 0.04178 0 0.0625 0.0074 0.02216 0.01798 0.04326 0.03125 0.0625 0.02211 0.03888 0.05487 0.07164 0.09375 0.09375 0.0095 0.01131 0.01994 0.02178 0.03125 0.03125 0.02072 0.0026 0.04178 0.0026 0.0625 0 0.0104 0.000651 0.02085 0.000651 0.03125 0h5.2187a0.25002 0.25002 0 0 0 0.03125 0 0.25002 0.25002 0 0 0 0.0625 0 0.25002 0.25002 0 0 0 0.0625 -0.0625 0.25002 0.25002 0 0 0 0.03125 -0.03125 0.25002 0.25002 0 0 0 0.03125 -0.0625 0.25002 0.25002 0 0 0 0.03125 -0.09375v-1.3125a0.25002 0.25002 0 0 0 0 -0.0625 0.25002 0.25002 0 0 0 -0.03125 -0.0625 0.25002 0.25002 0 0 0 -0.0625 -0.0625 0.25002 0.25002 0 0 0 -0.03125 0 0.25002 0.25002 0 0 0 -0.03125 -0.03125 0.25002 0.25002 0 0 0 -0.03125 0 0.25002 0.25002 0 0 0 -0.0625 -0.03125h-3.5625v-1.5938h3.1562a0.25002 0.25002 0 0 0 0.0625 0 0.25002 0.25002 0 0 0 0.03125 -0.03125 0.25002 0.25002 0 0 0 0.0625 -0.03125 0.25002 0.25002 0 0 0 0.03125 -0.03125 0.25002 0.25002 0 0 0 0.03125 -0.03125 0.25002 0.25002 0 0 0 0.03125 -0.09375 0.25002 0.25002 0 0 0 0 -0.03125v-1.3125a0.25002 0.25002 0 0 0 -0.03125 -0.09375 0.25002 0.25002 0 0 0 -0.03125 -0.03125 0.25002 0.25002 0 0 0 -0.0625 -0.0625 0.25002 0.25002 0 0 0 -0.03125 0 0.25002 0.25002 0 0 0 -0.03125 -0.03125 0.25002 0.25002 0 0 0 -0.03125 0 0.25002 0.25002 0 0 0 -0.03125 -0.03125h-3.1562v-1.5h3.5625a0.25002 0.25002 0 0 0 0.03125 0 0.25002 0.25002 0 0 0 0.0625 0 0.25002 0.25002 0 0 0 0.03125 -0.03125 0.25002 0.25002 0 0 0 0.03125 0 0.25002 0.25002 0 0 0 0.0625 -0.0625 0.25002 0.25002 0 0 0 0 -0.03125 0.25002 0.25002 0 0 0 0.03125 -0.09375 0.25002 0.25002 0 0 0 0 -0.03125v-1.2813a0.25002 0.25002 0 0 0 -0.03125 -0.09375 0.25002 0.25002 0 0 0 -0.03125 -0.0625 0.25002 0.25002 0 0 0 -0.03125 -0.03125 0.25002 0.25002 0 0 0 -0.03125 -0.03125 0.25002 0.25002 0 0 0 -0.03125 0 0.25002 0.25002 0 0 0 -0.0625 -0.03125 0.25002 0.25002 0 0 0 -0.03125 0h-5.2187a0.25002 0.25002 0 0 0 -0.03125 0 0.25002 0.25002 0 0 0 -0.03125 0 0.25002 0.25002 0 0 0 -0.03125 0z" display="block"/></svg>