<svg xmlns="http://www.w3.org/2000/svg" id="root" version="1.1" viewBox="0 0 16 16"><defs><radialGradient id="b" cx="301" cy="51.5" r="19.5" gradientTransform="matrix(.97063 1.9684e-8 0 .28611 -291.16 -14.63)" gradientUnits="userSpaceOnUse"><stop offset="0" stop-color="#fff"/><stop offset="1" stop-color="#fff" stop-opacity="0"/></radialGradient><radialGradient id="a" cx="24.446" cy="35.878" r="20.531" gradientTransform="matrix(.85696 3.2529e-7 -1.253e-7 .33010 -12.949 .77181)" gradientUnits="userSpaceOnUse"><stop offset="0" stop-color="#fff"/><stop offset="1" stop-color="#dcf6c2"/></radialGradient><linearGradient id="c" x1="321.57" x2="311.65" y1="145.52" y2="118.5" gradientTransform="matrix(.55569 0 0 .55568 -169.27 -70.906)" gradientUnits="userSpaceOnUse"><stop offset="0" stop-color="#4e9a06"/><stop offset="1" stop-color="#d3f4b2"/></linearGradient><linearGradient id="d" x1="491.22" x2="491.22" y1="506.65" y2="732.05" gradientTransform="matrix(.093294 0 0 .093294 -35.84 -43.769)" gradientUnits="userSpaceOnUse"><stop offset="0" stop-color="#4e9a06"/><stop offset="1" stop-color="#8ae234"/></linearGradient></defs><rect width="15.004" height="15.003" x=".498" y=".498" fill="url(#a)" fill-rule="evenodd" stroke="url(#c)" stroke-linejoin="bevel" stroke-miterlimit="10" rx="1.514" ry="1.514"/><rect width="12.997" height="13" x="1.501" y="1.502" fill="none" stroke="#fff" stroke-linejoin="bevel" stroke-miterlimit="10" rx=".508" ry=".508"/><rect width="14" height="14" x="1.002" y="1.002" fill="url(#b)" fill-rule="evenodd" rx="1.906" ry="1.906"/><path fill="#fff" d="m4.9353 4.8501c-0.03291 0.00406-0.06499 0.014754-0.09375 0.03125-0.02216 0.00743-0.04326 0.017981-0.0625 0.03125-0.01131 0.00947-0.02175 0.019939-0.03125 0.03125-0.02758 0.025975-0.04913 0.058305-0.0625 0.09375-0.0026 0.020724-0.0026 0.041776 0 0.0625v8a0.25002 0.25002 0 0 0 0 0.0625 0.25002 0.25002 0 0 0 0.03125 0.0625 0.25002 0.25002 0 0 0 0.03125 0.03125 0.25002 0.25002 0 0 0 0.03125 0.03125 0.25002 0.25002 0 0 0 0.0625 0.03125 0.25002 0.25002 0 0 0 0.09375 0.03125h1.4375a0.25002 0.25002 0 0 0 0.09375 -0.03125 0.25002 0.25002 0 0 0 0.0625 -0.03125 0.25002 0.25002 0 0 0 0.03125 -0.03125 0.25002 0.25002 0 0 0 0.03125 -0.03125 0.25002 0.25002 0 0 0 0.03125 -0.03125 0.25002 0.25002 0 0 0 0 -0.0625 0.25002 0.25002 0 0 0 0 -0.03125v-2.875c0.11491 0.0052 0.21821 0.03125 0.34375 0.03125 0.87733 0 1.8771-0.05577 2.6875-0.4375s1.4375-1.1251 1.4375-2.3438c0-1.1859-0.65393-1.9068-1.4062-2.25-0.75232-0.34325-1.5933-0.375-2.125-0.375h-2.625zm1.6875 1.8125h0.78125c0.50267 0 0.97982 0.028766 1.2812 0.15625 0.30143 0.12748 0.4375 0.27798 0.4375 0.6875 0 0.23499-0.037039 0.38143-0.125 0.5s-0.22339 0.21106-0.40625 0.28125c-0.36571 0.14038-0.93321 0.1875-1.5312 0.1875-0.14412 0-0.29053-0.021575-0.4375-0.03125v-1.7812z" display="block"/><path fill="url(#d)" d="m5.0479 3.75c-0.03291 0.00406-0.06499 0.014754-0.09375 0.03125-0.02216 0.00743-0.04326 0.017981-0.0625 0.03125-0.01131 0.00947-0.02175 0.019939-0.03125 0.03125-0.02758 0.025975-0.04913 0.058305-0.0625 0.09375-0.0026 0.020724-0.0026 0.041776 0 0.0625v8a0.25002 0.25002 0 0 0 0 0.0625 0.25002 0.25002 0 0 0 0.03125 0.0625 0.25002 0.25002 0 0 0 0.03125 0.03125 0.25002 0.25002 0 0 0 0.03125 0.03125 0.25002 0.25002 0 0 0 0.0625 0.03125 0.25002 0.25002 0 0 0 0.09375 0.03125h1.4375a0.25002 0.25002 0 0 0 0.09375 -0.03125 0.25002 0.25002 0 0 0 0.0625 -0.03125 0.25002 0.25002 0 0 0 0.03125 -0.03125 0.25002 0.25002 0 0 0 0.03125 -0.03125 0.25002 0.25002 0 0 0 0.03125 -0.03125 0.25002 0.25002 0 0 0 0 -0.0625 0.25002 0.25002 0 0 0 0 -0.03125v-2.875c0.11491 0.00518 0.21821 0.03125 0.34375 0.03125 0.87733 0 1.8771-0.055769 2.6875-0.4375 0.8104-0.3818 1.4374-1.1251 1.4374-2.3438 0-1.1859-0.65393-1.9068-1.4062-2.25-0.7523-0.3432-1.5932-0.375-2.1249-0.375h-2.625zm1.6875 1.8125h0.78125c0.50267 0 0.97982 0.028766 1.2812 0.15625 0.30143 0.12748 0.4375 0.27798 0.4375 0.6875 0 0.23499-0.037039 0.38143-0.125 0.5s-0.22339 0.21106-0.40625 0.28125c-0.36571 0.14038-0.93321 0.1875-1.5312 0.1875-0.14412 0-0.29053-0.021575-0.4375-0.03125v-1.7812z" display="block"/></svg>