<svg xmlns="http://www.w3.org/2000/svg" id="root" version="1.1" viewBox="0 0 16 16"><rect width="2" height="5" x="-9" y="-5" rx="1" ry="0" transform="matrix(0,-1,-1,0,0,0)"/><rect width="2" height="5" x="-9" y="-16" rx=".938" ry="0" transform="matrix(0,-1,-1,0,0,0)"/><path d="m4 3c-1.108 0-2 0.892-2 2v6c0 1.108 0.892 2 2 2h3v-2h-2c-0.554 0-1-0.446-1-1v-4c0-0.554 0.446-1 1-1h2v-2h-3z"/><path d="m9 3v2h2c0.554 0 1 0.446 1 1v4c0 0.554-0.446 1-1 1h-2v2h3c1.108 0 2-0.892 2-2v-6c0-1.108-0.892-2-2-2h-3z"/></svg>